<svg width="12" height="10" viewBox="0 0 12 10" fill="none" xmlns="http://www.w3.org/2000/svg">
<path d="M4.28267 9.19107L0.383456 5.31373C0.360969 5.29137 0.343123 5.26478 0.330946 5.2355C0.318769 5.20622 0.3125 5.17482 0.3125 5.1431C0.3125 5.11139 0.318769 5.07999 0.330946 5.05071C0.343123 5.02143 0.360969 4.99484 0.383456 4.97248L1.36783 3.98701C1.46189 3.89295 1.61392 3.89295 1.70799 3.98701L4.27502 6.53873C4.36908 6.63279 4.52221 6.6317 4.61627 6.53764L10.2885 0.810762C10.3825 0.715606 10.5356 0.715606 10.6308 0.809669L11.6163 1.79514C11.7103 1.8892 11.7103 2.04123 11.6174 2.13529L5.43767 8.37076L5.43877 8.37185L4.62392 9.19107C4.52986 9.28514 4.37674 9.28514 4.28267 9.19107Z" fill="#585757"/>
</svg>
